<?xml version="1.0" encoding="UTF-8" standalone="no" ?>
<!DOCTYPE svg PUBLIC "-//W3C//DTD SVG 1.1//EN" "http://www.w3.org/Graphics/SVG/1.1/DTD/svg11.dtd">
<svg xmlns="http://www.w3.org/2000/svg" xmlns:xlink="http://www.w3.org/1999/xlink" version="1.1" width="100" height="100" viewBox="123.63854565138246 -99.34339099121942 201.12290869723506 206.18678198243884" xml:space="preserve">
<desc>Created with Fabric.js 4.6.0</desc>
<defs>
</defs>
<g transform="matrix(1 0 0 1 207.86 6.81)" id="r7OFaaAOVBnwf0R9olY-9"  >
<path style="stroke: none; stroke-width: 1; stroke-dasharray: none; stroke-linecap: butt; stroke-dashoffset: 0; stroke-linejoin: miter; stroke-miterlimit: 4; fill: transparent; fill-rule: evenodd; opacity: 1;" vector-effect="non-scaling-stroke"  transform=" translate(-657.86, -246.81)" d="M 661.32 259.92 C 657.8230000000001 259.899 656.839 258.781 655.552 255.85000000000002 C 655.1220000000001 254.866 654.025 254.16500000000002 653.517 253.13700000000003 C 652.402 250.86800000000002 652.8180000000001 248.26900000000003 652.1610000000001 245.67500000000004 C 651.9340000000001 244.78600000000003 651.1800000000001 244.08100000000005 651.143 243.30000000000004 C 650.981 239.80000000000004 653.1560000000001 236.78500000000005 653.855 234.48100000000005 C 655.4300000000001 234.47300000000004 655.883 233.34200000000004 657.9250000000001 233.80300000000005 C 665.425 239.247 666.627 252.524 661.32 259.92 z" stroke-linecap="round" />
</g>
<g transform="matrix(1 0 0 1 229.99 -46.05)" id="Se4OcOu877ROaZyUIBD_t"  >
<path style="stroke: none; stroke-width: 1; stroke-dasharray: none; stroke-linecap: butt; stroke-dashoffset: 0; stroke-linejoin: miter; stroke-miterlimit: 4; fill: transparent; fill-rule: evenodd; opacity: 1;" vector-effect="non-scaling-stroke"  transform=" translate(-679.99, -193.95)" d="M 666.406 242.623 C 664.834 240.434 666.9979999999999 240.029 667.0849999999999 237.196 C 675.1469999999999 226.151 686.597 218.074 686.0819999999999 199.545 C 683.7599999999999 203.178 684.0279999999999 206.862 683.0269999999999 210.73899999999998 C 680.741 219.58799999999997 672.512 225.60399999999998 667.7639999999999 232.78599999999997 C 670.4869999999999 224.26599999999996 674.5769999999999 219.07999999999998 678.2789999999999 211.41699999999997 C 676.5449999999998 212.20799999999997 675.6689999999999 214.09199999999998 674.5469999999999 215.48699999999997 C 671.29 219.53299999999996 668.1579999999999 224.72999999999996 666.0679999999999 230.41199999999998 C 665.5059999999999 227.48699999999997 666.8369999999999 223.37099999999998 665.7299999999999 219.21899999999997 C 669.6789999999999 215.19799999999998 671.0409999999999 209.60199999999998 674.5479999999999 204.63399999999996 C 675.4539999999998 197.75299999999996 676.6089999999999 191.33799999999997 676.5839999999998 183.94399999999996 C 673.7499999999999 172.13399999999996 674.2509999999999 152.78599999999994 683.0279999999998 145.27699999999996 C 685.6039999999998 147.07599999999996 683.5209999999998 149.91299999999995 683.3659999999998 152.06099999999995 C 682.2329999999997 167.79399999999995 693.4979999999997 179.47099999999995 694.2199999999998 196.15499999999994 C 694.4919999999998 202.46099999999996 692.2839999999998 211.07899999999995 690.1499999999997 218.20299999999995 C 690.1239999999998 218.28899999999996 689.2479999999997 220.08499999999995 689.1339999999998 220.23799999999994 C 687.1939999999997 222.81999999999994 683.7049999999998 223.88499999999993 680.3159999999998 225.66499999999994 C 673.936 229.01 668.866 235.226 666.406 242.623 z" stroke-linecap="round" />
</g>
<g transform="matrix(1 0 0 1 224.2 3.75)" id="V3vIVq0QPsxmiKkBgfdCk"  >
<path style="stroke: none; stroke-width: 1; stroke-dasharray: none; stroke-linecap: butt; stroke-dashoffset: 0; stroke-linejoin: miter; stroke-miterlimit: 4; fill: rgb(135,120,143); fill-rule: evenodd; opacity: 1;" vector-effect="non-scaling-stroke"  transform=" translate(-674.2, -243.75)" d="M 644.36 320.296 C 639.649 324.501 630.6030000000001 330.132 621.633 333.186 C 617.693 334.527 614.147 335.031 608.744 334.542 C 605.1070000000001 330.78799999999995 610.0830000000001 327.787 612.8140000000001 324.366 C 613.4080000000001 323.62199999999996 613.3180000000001 322.425 613.8320000000001 321.65299999999996 C 615.9720000000001 318.441 619.0790000000001 315.64699999999993 619.5980000000001 312.49499999999995 C 609.359 310.07099999999997 602.9180000000001 303.84999999999997 598.229 295.87399999999997 C 598.5600000000001 293.44899999999996 598.652 291.171 600.264 289.09099999999995 C 606.966 288.06199999999995 612.917 289.0439999999999 618.241 288.412 C 600.4549999999999 287.16799999999995 589.466 282.65299999999996 581.608 271.792 C 577.5939999999999 266.24399999999997 579.26 261.048 578.5569999999999 254.15399999999997 C 578.3469999999999 252.11499999999998 577.5969999999999 250.71999999999997 576.1829999999999 249.06599999999997 C 575.5959999999999 247.277 575.7739999999999 244.72499999999997 574.1479999999999 243.97799999999998 C 574.1069999999999 240.344 574.3029999999999 234.62399999999997 575.843 230.74999999999997 C 577.1039999999999 229.86099999999996 577.972 228.58199999999997 579.913 228.37599999999998 C 588.719 234.69899999999998 591.795 244.71599999999998 603.658 248.04899999999998 C 598.303 243.147 590.114 232.63299999999998 588.393 225.32299999999998 C 587.913 223.28199999999998 586.26 220.65699999999998 589.4110000000001 218.2 C 602.6170000000001 218.56799999999998 605.4430000000001 231.62099999999998 620.618 231.089 C 614.032 222.459 615.601 210.513 618.5820000000001 199.883 C 620.3190000000001 193.68200000000002 621.4010000000001 184.98100000000002 619.2590000000001 179.193 C 618.1030000000002 176.06900000000002 614.2700000000001 172.298 615.1890000000001 168 C 618.921 166.788 621.225 165.116 626.0430000000001 166.643 C 635.1760000000002 169.537 644.3310000000001 174.747 650.4660000000001 181.228 C 654.2130000000001 185.185 656.9770000000001 190.376 659.6230000000002 195.47400000000002 C 662.4090000000001 200.83800000000002 664.6580000000001 205.836 665.7290000000002 213.11200000000002 C 669.3510000000001 205.89200000000002 673.2370000000002 200.07100000000003 673.8700000000001 192.76100000000002 C 674.1680000000001 189.32300000000004 673.0570000000001 185.55200000000002 672.8500000000001 181.56700000000004 C 672.4010000000002 172.79600000000005 672.1470000000002 157.38900000000004 676.5820000000001 146.97000000000003 C 678.8930000000001 144.81300000000002 680.8620000000001 140.70200000000003 684.7230000000001 141.20300000000003 C 690.1880000000001 145.93700000000004 685.4110000000001 154.48700000000002 686.4190000000001 161.21600000000004 C 687.1440000000001 166.06500000000003 689.9380000000001 171.34400000000005 691.844 176.14000000000004 C 694.976 184.00600000000003 696.452 191.44000000000005 696.9340000000001 202.25800000000004 C 695.657 207.39100000000005 695.6200000000001 210.99400000000003 694.2180000000001 214.46900000000005 C 695.7600000000001 212.89800000000005 698.561 209.86900000000006 700.662 205.31000000000006 C 702.1650000000001 202.05400000000006 702.246 196.98200000000006 704.395 195.81300000000005 C 706.861 194.47200000000004 708.473 198.99600000000004 709.824 201.57900000000004 C 710.1139999999999 204.69300000000004 712.4879999999999 209.20500000000004 712.197 212.77200000000005 C 715.249 210.10200000000006 718.016 206.77200000000005 720 202.59600000000006 C 721.248 199.96200000000007 721.142 196.94800000000006 722.035 194.11700000000008 C 722.4359999999999 192.84300000000007 723.552 191.81500000000008 724.067 190.38600000000008 C 726.124 184.72000000000008 726.106 177.83800000000008 731.192 176.14000000000007 C 735.678 178.31500000000008 737.004 183.66400000000007 737.636 189.36900000000009 C 737.827 191.11100000000008 739.038 192.68900000000008 739.332 194.11800000000008 C 741.003 202.22300000000007 737.746 212.41300000000007 736.277 218.20100000000008 C 743.119 212.62500000000009 753.462 204.43900000000008 764.432 202.25900000000007 C 767.836 201.58200000000008 772.3240000000001 201.14500000000007 774.266 202.93700000000007 C 774.285 203.58600000000007 772.4739999999999 205.02500000000006 773.928 204.97200000000007 C 773.456 205.51700000000005 772.253 205.33300000000006 771.893 205.98900000000006 C 758.7320000000001 230.16400000000007 745.769 252.45100000000008 714.57 258.5640000000001 C 720.4630000000001 262.9650000000001 730.0680000000001 259.71400000000006 735.6 257.5460000000001 C 747.623 256.4520000000001 751.628 245.5380000000001 763.751 245.6750000000001 C 763.435 252.8700000000001 760.5129999999999 260.2520000000001 756.968 265.6860000000001 C 756.5999999999999 266.2530000000001 755.684 266.4790000000001 755.2719999999999 267.0430000000001 C 754.4179999999999 268.2170000000001 754.334 270.07800000000015 753.5759999999999 271.1130000000001 C 749.2289999999999 277.0650000000001 741.2869999999999 279.29000000000013 733.5649999999999 281.6270000000001 C 736.7109999999999 285.2940000000001 737.804 291.54000000000013 733.904 295.5340000000001 C 730.654 298.8590000000001 727.47 302.9860000000001 723.727 306.0490000000001 C 719.016 309.9030000000001 711.04 311.9060000000001 703.3779999999999 310.1190000000001 C 697.9519999999999 308.8540000000001 690.1969999999999 304.1880000000001 685.059 300.96100000000007 C 682.398 299.28900000000004 680.3449999999999 295.2010000000001 677.5989999999999 293.4990000000001 C 678.4899999999999 302.4340000000001 681.419 312.68700000000007 675.564 321.65100000000007 C 675.1519999999999 321.8470000000001 675.785 322.9320000000001 675.222 323.68700000000007 C 671.03 328.60800000000006 664.14 338.30800000000005 655.55 342.00300000000004 C 654.538 342.43700000000007 652.4939999999999 342.65400000000005 650.8019999999999 343.35900000000004 C 648.1349999999999 344.47 643.8349999999999 347.223 638.9289999999999 346.07200000000006 C 636.7279999999998 345.55600000000004 636.3819999999998 343.63800000000003 634.8589999999998 342.00300000000004 C 635.52 332.563 639.379 327.382 644.36 320.296 z M 649.108 239.909 C 650.7199999999999 231.976 646.4559999999999 223.167 647.073 216.165 C 648.317 221.54 650.4 226.16199999999998 652.161 231.768 C 655.924 230.316 660.8699999999999 231.897 662.6759999999999 234.481 C 663.6829999999999 230.546 663.1189999999999 221.62 664.0319999999999 217.183 C 662.53 216.064 663.2919999999999 214.206 663.016 212.434 C 661.169 200.588 654.682 193.304 649.447 184.96 C 644.322 181.606 639.697 177.75 635.202 173.767 C 630.596 171.534 622.355 167.257 617.902 171.732 C 624.711 180.612 625.027 197.701 619.599 207.347 C 619.678 211.62800000000001 617.705 213.854 618.5830000000001 219.219 C 620.604 231.603 633.056 244.2 641.6460000000001 250.423 C 641.9720000000001 251.117 642.34 251.766 642.6640000000001 252.459 C 645.6450000000001 252.827 648.0760000000001 256.742 650.4660000000001 255.512 C 649.9470000000001 254.447 648.3200000000002 254.49 647.4110000000002 253.816 C 639.7410000000002 243.762 631.6150000000001 232.269 629.4360000000001 218.87900000000002 C 631.4550000000002 222.62600000000003 633.0470000000001 226.8 635.2020000000001 230.412 C 635.2770000000002 229.77100000000002 634.8210000000001 229.663 634.8620000000001 229.055 C 637.58 235.383 641.1110000000001 242.705 646.3960000000001 245.336 C 645.0200000000001 244.507 646.109 243.30300000000003 646.7350000000001 242.62300000000002 C 643.9490000000002 231.63000000000002 636.0670000000001 223.64100000000002 634.8620000000001 211.41700000000003 C 639.042 221.484 644.055 230.717 649.108 239.909 z M 680.314 225.663 C 683.704 223.88400000000001 687.192 222.818 689.132 220.23600000000002 C 689.246 220.08300000000003 690.122 218.287 690.1479999999999 218.20100000000002 C 692.2829999999999 211.07700000000003 694.4909999999999 202.45900000000003 694.218 196.15300000000002 C 693.497 179.46900000000002 682.231 167.79200000000003 683.3639999999999 152.05900000000003 C 683.5189999999999 149.91200000000003 685.602 147.074 683.026 145.27500000000003 C 674.2479999999999 152.78500000000003 673.7479999999999 172.13300000000004 676.582 183.94200000000004 C 676.607 191.33700000000005 675.452 197.75200000000004 674.546 204.63200000000003 C 671.0390000000001 209.60000000000002 669.677 215.19600000000003 665.7280000000001 219.21700000000004 C 666.835 223.36900000000003 665.5050000000001 227.48500000000004 666.066 230.41000000000005 C 668.1560000000001 224.72800000000007 671.289 219.53200000000004 674.5450000000001 215.48500000000004 C 675.6680000000001 214.09000000000003 676.5440000000001 212.20600000000005 678.277 211.41500000000005 C 674.5740000000001 219.07800000000006 670.485 224.26400000000004 667.7620000000001 232.78400000000005 C 672.5100000000001 225.60200000000006 680.739 219.58600000000004 683.0250000000001 210.73700000000005 C 684.0260000000001 206.86000000000004 683.7570000000001 203.17600000000004 686.08 199.54300000000006 C 686.595 218.07200000000006 675.1450000000001 226.14900000000006 667.0830000000001 237.19400000000007 C 666.9970000000001 240.02700000000007 664.8330000000001 240.43200000000007 666.4040000000001 242.62100000000007 C 668.866 235.226 673.936 229.01 680.314 225.663 z M 711.86 231.09 C 720.785 226.562 724.075 216.399 730.515 209.382 C 727.347 217.303 722.864 225 716.269 231.09 C 723.125 230.032 726.445 225.44 731.532 222.611 C 736.7760000000001 211.53699999999998 738.1080000000001 195.331 733.567 182.248 C 732.385 181.733 732.094 180.327 731.193 179.535 C 727.505 182.704 728.444 189.114 726.4449999999999 194.459 C 725.286 197.554 723.107 200.008 723.0519999999999 203.27700000000002 C 720.4749999999999 205.36700000000002 719.6109999999999 209.02900000000002 717.2839999999999 212.096 C 715.7669999999998 214.1 713.2579999999999 215.305 712.5359999999998 217.523 C 711.8989999999999 219.49 712.7169999999999 222.468 713.2139999999998 224.98499999999999 C 715.1389999999998 222.385 716.9529999999999 219.67999999999998 719.6579999999998 217.862 C 717.8909999999997 220.462 716.8279999999997 224.298 714.9099999999997 224.98499999999999 C 715.073 226.846 711.882 228.283 711.86 231.09 z M 691.845 220.915 C 689.143 224.45999999999998 684.779 227.277 680.653 228.37699999999998 C 677.893 231.73299999999998 673.546 233.73499999999999 671.157 237.19599999999997 C 669.216 240.00499999999997 669.287 243.63599999999997 666.7460000000001 246.69199999999998 C 667.9580000000001 247.07699999999997 666.1190000000001 248.92999999999998 667.0840000000001 249.06699999999998 C 670.4350000000001 242.01699999999997 675.1350000000001 236.31399999999996 682.0100000000001 232.78599999999997 C 676.6700000000001 237.11499999999998 671.142 244.29499999999996 669.1190000000001 249.74499999999998 C 673.4560000000001 246.65099999999998 678.6460000000002 243.21899999999997 682.6870000000001 239.90899999999996 C 683.7070000000001 239.07299999999995 685.3520000000001 236.69099999999997 686.7580000000002 237.87299999999996 C 682.3270000000001 242.48699999999997 677.1330000000002 246.33799999999997 672.5110000000002 250.76199999999997 C 677.4130000000002 248.19899999999998 683.4790000000002 244.99699999999999 687.7740000000002 242.95999999999998 C 682.4560000000002 248.44899999999998 673.0420000000003 252.80299999999997 665.7290000000003 258.224 C 673.6710000000003 255.987 679.8430000000003 253.34699999999998 682.6880000000002 252.119 C 685.7500000000002 250.798 690.6450000000002 249.105 693.5420000000003 247.37 C 693.5750000000003 247.75 693.0480000000002 247.898 693.5420000000003 248.048 C 693.8620000000003 246.27100000000002 696.5560000000003 247.563 695.5770000000002 246.013 C 697.3470000000002 246.71 696.1950000000003 245.86 697.2730000000003 245.335 C 697.1890000000003 245.549 697.1040000000003 245.895 696.9350000000003 246.013 C 700.3940000000002 243.639 710.5720000000003 237.625 709.8250000000003 228.375 C 711.8160000000003 225.361 710.7490000000003 217.11599999999999 710.1630000000002 213.79 C 709.3160000000003 208.97299999999998 708.4080000000002 201.759 705.0770000000002 199.206 C 703.5090000000002 202.34199999999998 703.3650000000002 207.618 700.6630000000002 209.042 C 699.136 213.054 696.1 218.497 691.845 220.915 z M 734.244 248.728 C 735.75 247.961 737.519 246.286 737.976 246.01500000000001 C 738.292 245.82700000000003 739.043 246.23600000000002 739.333 246.01500000000001 C 740.059 245.45700000000002 739.886 244.412 740.687 243.979 C 741.07 243.77300000000002 741.258 243.74800000000002 741.707 243.64100000000002 C 740.86 243.84400000000002 744.3389999999999 242.01500000000001 744.42 241.94400000000002 C 745.284 241.19500000000002 745.7629999999999 239.574 747.132 238.55200000000002 C 757.232 231.03300000000002 761.0039999999999 215.81900000000002 769.521 204.63400000000001 C 750.99 206.29600000000002 741.9839999999999 217.78500000000003 731.5319999999999 226.342 C 725.536 231.251 718.459 233.77700000000002 709.4859999999999 236.51700000000002 C 707.5469999999999 242.04300000000003 701.6379999999999 245.40300000000002 698.2889999999999 248.389 C 704.7889999999999 245.61700000000002 712.0179999999999 241.76600000000002 718.6429999999999 240.24800000000002 C 717.122 242.05900000000003 713.1549999999999 243.305 710.8399999999999 245.336 C 709.526 245.01500000000001 709.444 246.65800000000002 708.4659999999999 245.675 C 702.4079999999999 250.585 690.9899999999999 251.941 685.0609999999999 255.85000000000002 C 695.5279999999999 253.99300000000002 705.9739999999999 250.30400000000003 715.2489999999999 248.38800000000003 C 710.3979999999999 250.48600000000005 705.8089999999999 252.84400000000002 700.6619999999999 254.83200000000002 C 691.9979999999999 258.18100000000004 680.8839999999999 258.29900000000004 671.833 260.259 C 674.822 261.028 684.708 262.552 686.757 260.937 C 690.857 260.982 696.208 261.363 698.626 258.902 C 705.447 259.113 713.091 255.899 718.303 254.154 C 718.299 254.602 717.706 254.464 717.622 254.832 C 722.62 252.759 727.088 252.9 732.207 249.405 C 732.211 249.745 731.935 249.808 731.8679999999999 250.083 C 731.988 249.491 735.437 248.12 734.244 248.728 z M 638.254 254.155 C 635.499 249.56 629.852 247.86 627.062 243.301 C 628.181 243.539 628.839 244.237 629.774 244.658 C 627.687 240.64 624.802 237.41799999999998 622.312 233.80399999999997 C 618.88 235.00199999999998 610.202 232.83499999999998 607.048 231.09099999999998 C 601.868 228.22499999999997 597.203 221.04799999999997 591.446 221.254 C 595.027 232.37099999999998 601.265 240.82899999999998 608.067 248.72899999999998 C 622.034 247.654 623.69 265.116 639.61 260.93899999999996 C 633.105 259.304 627.97 256.29699999999997 623.33 252.79899999999998 C 625.4200000000001 253.093 623.109 251.97099999999998 624.0070000000001 251.78099999999998 C 628.384 252.94599999999997 632.984 255.69199999999998 637.2360000000001 255.85099999999997 C 631.0000000000001 252.25299999999996 625.6320000000001 247.78299999999996 619.2590000000001 244.31899999999996 C 627.066 246.123 632.441 250.357 638.254 254.155 z M 616.207 269.079 C 627.6 267.922 639.245 267.017 646.395 261.617 C 641.909 263.00300000000004 636.408 264.434 631.13 263.99100000000004 C 623.6129999999999 261.71500000000003 619.802 252.97700000000003 611.1179999999999 251.44100000000003 C 604.1289999999999 250.20500000000004 597.217 250.34600000000003 591.4459999999999 246.01400000000004 C 590.752 244.44600000000003 589.55 243.38700000000003 588.3929999999999 242.28300000000004 C 585.3949999999999 238.83700000000005 583.5049999999999 234.28100000000003 579.2339999999999 232.10800000000003 C 573.2639999999999 240.55600000000004 580.699 248.06700000000004 581.2689999999999 254.83400000000003 C 581.5099999999999 257.68500000000006 580.4809999999999 260.574 580.9309999999999 263.314 C 581.3739999999999 266.023 585.1009999999999 272.33500000000004 586.698 273.48900000000003 C 587.25 273.889 587.303 273.05100000000004 587.7139999999999 273.48900000000003 C 588.1629999999999 273.968 588.266 275.076 588.732 275.52400000000006 C 591.645 278.32800000000003 596.831 281.16100000000006 601.2819999999999 282.30800000000005 C 613.8779999999999 285.55300000000005 628.2359999999999 284.64300000000003 637.915 277.559 C 644.3499999999999 275.51500000000004 647.855 270.54 650.804 265.009 C 648.78 266.04200000000003 648.0219999999999 267.27000000000004 648.092 268.40000000000003 C 644.38 272.15200000000004 639.734 276.77700000000004 634.184 277.559 C 638.232 274.71000000000004 642.472 272.053 645.716 268.40000000000003 C 636.867 274.432 625.665 278.889 611.118 276.54100000000005 C 624.99 275.67300000000006 638.0260000000001 272.8670000000001 644.6980000000001 265.34800000000007 C 635.387 269.693 625.634 270.512 616.207 269.079 z M 657.926 233.803 C 655.884 233.34199999999998 655.431 234.47299999999998 653.856 234.481 C 653.156 236.785 650.981 239.79999999999998 651.144 243.29999999999998 C 651.181 244.081 651.9350000000001 244.78599999999997 652.162 245.67499999999998 C 652.8190000000001 248.26899999999998 652.403 250.868 653.518 253.13699999999997 C 654.0260000000001 254.16599999999997 655.123 254.86599999999999 655.553 255.84999999999997 C 656.84 258.78099999999995 657.824 259.89899999999994 661.321 259.91999999999996 C 666.627 252.524 665.425 239.247 657.926 233.803 z M 755.274 251.441 C 746.831 257.866 736.11 264.767 719.32 263.652 C 717.966 262.829 716.6110000000001 262.71 714.9110000000001 262.973 C 713.259 260.966 710.6890000000001 261.62100000000004 709.143 259.92 C 708.0360000000001 260.661 704.65 259.809 705.753 260.938 C 702.5590000000001 260.572 700.8910000000001 261.72999999999996 697.95 261.61699999999996 C 698.8810000000001 263.40399999999994 703.446 263.352 703.041 265.34799999999996 C 697.4570000000001 263.80799999999994 692.8340000000001 262.61999999999995 686.4190000000001 263.99099999999993 C 691.5310000000001 264.2819999999999 697.6450000000001 265.05299999999994 701.6820000000001 267.3829999999999 C 693.8980000000001 267.3309999999999 686.9530000000001 265.6499999999999 679.6370000000002 265.6869999999999 C 687.1710000000002 268.0359999999999 698.4660000000001 269.3749999999999 706.4310000000002 271.1149999999999 C 706.7250000000001 272.5629999999999 707.3590000000002 272.4139999999999 708.4660000000001 273.4889999999999 C 703.4350000000002 272.86799999999994 697.9800000000001 270.8599999999999 692.8630000000002 271.4539999999999 C 694.9130000000001 272.4539999999999 697.5920000000002 272.82999999999987 698.2880000000001 275.1849999999999 C 697.4450000000002 275.62599999999986 696.8820000000002 274.1899999999999 696.5950000000001 275.1849999999999 C 701.1810000000002 277.00799999999987 705.0350000000002 279.10199999999986 710.8390000000002 278.9159999999999 C 713.7980000000001 273.9729999999999 712.6900000000002 265.95499999999987 718.6420000000002 264.6699999999999 C 724.2320000000002 268.00299999999993 723.7500000000001 275.7729999999999 729.8330000000002 278.9159999999999 C 747.6360000000002 278.82999999999987 757.9370000000002 263.9299999999999 761.3780000000002 248.38999999999987 C 758.186 247.615 756.935 250.178 755.274 251.441 z M 666.747 269.079 C 670.7049999999999 272.808 674.434 276.77 677.26 281.628 C 671.408 275.909 665.42 272.279 661.3199999999999 264.669 C 660.727 266.957 662.4409999999999 266.94 663.016 268.06199999999995 C 665.016 271.48699999999997 667.274 274.657 670.1379999999999 277.21999999999997 C 670.1129999999999 278.268 670.9259999999999 278.135 671.1579999999999 279.59499999999997 C 672.06 280.04799999999994 672.2919999999999 281.171 673.5319999999999 281.291 C 675.8539999999999 289.686 684.713 296.108 692.5269999999999 300.624 C 696.7889999999999 303.09000000000003 702.679 307.755 708.468 307.74800000000005 C 715.9649999999999 307.73900000000003 721.4269999999999 300.46900000000005 726.105 296.55500000000006 C 727.845 295.09800000000007 730.198 294.6050000000001 731.8720000000001 293.16300000000007 C 739.1080000000001 286.93700000000007 727.85 280.71600000000007 723.7310000000001 277.89900000000006 C 722.339 275.90000000000003 721.3500000000001 273.49700000000007 720.0020000000001 271.45500000000004 C 719.5020000000001 270.03200000000004 719.8140000000001 267.79600000000005 717.9670000000001 267.72400000000005 C 714.445 270.08700000000005 716.1050000000001 274.47200000000004 715.2510000000001 277.89900000000006 C 713.5580000000001 284.7200000000001 707.051 287.10100000000006 703.3820000000001 293.16300000000007 C 695.3720000000001 297.0210000000001 683.61 293.21900000000005 682.6890000000001 285.36100000000005 C 685.1630000000001 286.50700000000006 686.815 288.47 688.4570000000001 290.44900000000007 C 697.3080000000001 293.51700000000005 705.7070000000001 288.07500000000005 709.1450000000001 281.63000000000005 C 706.6940000000001 281.55600000000004 704.4050000000001 281.41800000000006 702.7010000000001 280.95200000000006 C 696.1970000000001 279.17300000000006 689.9220000000001 275.08500000000004 683.3670000000002 272.47300000000007 C 676.4920000000002 269.7300000000001 669.8140000000002 266.77900000000005 664.7130000000002 262.9750000000001 C 670.7140000000002 270.88000000000005 679.8890000000002 275.61300000000006 688.4580000000002 280.95200000000006 C 679.034 279.403 672.986 272.675 666.747 269.079 z M 646.734 286.039 C 648.966 282.704 651.537 277.972 651.4820000000001 275.185 C 648.3460000000001 280.304 642.3550000000001 284.371 638.2540000000001 287.395 C 642.5330000000001 281.611 649.7550000000001 276.962 651.1430000000001 269.418 C 649.0730000000001 273.041 645.1310000000002 276.469 643.0010000000001 278.916 C 638.003 282.171 634.0100000000001 285.359 629.4350000000001 288.075 C 625.6300000000001 290.33299999999997 620.591 291.825 615.527 294.18 C 622.649 297.73 632.037 296.66200000000003 639.95 297.573 C 638.3530000000001 299.45099999999996 633.844 298.34299999999996 631.13 298.59099999999995 C 623.4879999999999 299.287 616.265 297.88899999999995 610.779 295.198 C 610.889 293.327 606.484 293.209 604.673 292.145 C 603.429 292.71 602.086 293.17499999999995 601.281 294.18 C 601.077 296.673 603.0939999999999 297.995 604.334 299.946 C 605.122 300.055 605.637 299.89200000000005 606.03 299.607 C 606.6039999999999 301.29400000000004 608.174 301.985 609.081 303.338 C 614.395 303.99 617.6560000000001 307.85200000000003 622.649 308.766 C 631.315 310.35200000000003 642.549 309.279 647.75 304.356 C 654.77 297.711 655.562 290.143 655.889 282.648 C 656.067 278.612 656.198 274.994 656.57 270.09900000000005 C 657.5640000000001 270.112 656.3660000000001 268.08400000000006 656.57 269.76000000000005 C 654.459 276.352 651.528 282.126 646.734 286.039 z M 659.623 320.296 C 663.883 309.604 661.8950000000001 294.383 659.961 284.681 C 659.67 283.217 659.659 281.493 658.605 280.95 C 659.724 292.389 658.13 305.525 652.1610000000001 315.20799999999997 C 651.7620000000001 315.159 651.3910000000001 314.604 651.143 315.20799999999997 C 648.5260000000001 324.46299999999997 638.029 328.777 637.577 341.325 C 640.592 344.97999999999996 648.644 341.74399999999997 651.482 340.647 C 658.8829999999999 337.78999999999996 665.2389999999999 331.47499999999997 669.799 325.383 C 675.103 318.299 677.204 306.078 675.2239999999999 296.21299999999997 C 673.631 288.26599999999996 669.459 283.885 664.3699999999999 278.57599999999996 C 665.0289999999999 278.71 664.8669999999998 277.03099999999995 664.0319999999999 277.558 C 663.4209999999999 279.413 665.0419999999999 279.03499999999997 665.3899999999999 279.932 C 665.3509999999999 280.574 664.2669999999998 280.168 664.3699999999999 280.95 C 664.8619999999999 281.477 665.4979999999999 281.858 665.7279999999998 282.646 C 664.9289999999999 284.7 666.4859999999999 287.666 666.7459999999999 290.108 C 667.2679999999999 295.035 667.5869999999999 299.837 667.0839999999998 306.729 C 665.7019999999999 300.212 664.8929999999998 288.52099999999996 661.9959999999999 282.308 C 664.049 296.512 665.913 309.01 659.623 320.296 z M 629.098 326.062 C 634.894 322.797 640.04 319.95300000000003 643.6809999999999 315.548 C 645.5319999999999 313.308 649.2629999999999 307.564 649.108 306.389 C 643.516 312.069 632.577 315.837 622.313 312.834 C 619.444 321.00600000000003 614.24 324.805 610.442 331.829 C 617.857 333.341 624.017 328.924 629.098 326.062 z" stroke-linecap="round" />
</g>
<g transform="matrix(1 0 0 1 190.97 -27.24)" id="gZn_pgEO_FmK5qq-u4vB0"  >
<path style="stroke: none; stroke-width: 1; stroke-dasharray: none; stroke-linecap: butt; stroke-dashoffset: 0; stroke-linejoin: miter; stroke-miterlimit: 4; fill: transparent; fill-rule: evenodd; opacity: 1;" vector-effect="non-scaling-stroke"  transform=" translate(-640.97, -212.76)" d="M 634.861 211.417 C 636.066 223.641 643.948 231.63 646.734 242.623 C 646.1080000000001 243.304 645.019 244.50699999999998 646.395 245.33599999999998 C 641.11 242.70499999999998 637.579 235.38299999999998 634.861 229.05499999999998 C 634.8199999999999 229.66299999999998 635.277 229.771 635.201 230.41199999999998 C 633.046 226.801 631.4540000000001 222.62599999999998 629.4350000000001 218.879 C 631.614 232.269 639.74 243.762 647.4100000000001 253.81599999999997 C 648.3190000000001 254.48899999999998 649.946 254.44599999999997 650.465 255.51199999999997 C 648.075 256.74199999999996 645.644 252.82699999999997 642.663 252.45899999999997 C 642.339 251.76599999999996 641.971 251.11699999999996 641.645 250.42299999999997 C 633.055 244.19999999999996 620.602 231.60299999999998 618.582 219.21899999999997 C 617.705 213.85399999999996 619.677 211.62799999999996 619.598 207.34699999999998 C 625.026 197.70099999999996 624.7099999999999 180.61199999999997 617.901 171.73199999999997 C 622.3539999999999 167.25699999999998 630.5949999999999 171.53399999999996 635.2009999999999 173.76699999999997 C 639.6969999999999 177.74999999999997 644.3209999999999 181.60599999999997 649.4459999999999 184.95999999999998 C 654.6809999999999 193.30399999999997 661.1679999999999 200.58799999999997 663.0149999999999 212.43399999999997 C 663.2909999999998 214.20599999999996 662.5289999999999 216.06399999999996 664.0309999999998 217.18299999999996 C 663.1179999999998 221.61999999999998 663.6809999999998 230.54599999999996 662.6749999999998 234.48099999999997 C 660.8699999999999 231.89699999999996 655.9239999999999 230.31499999999997 652.1599999999999 231.76799999999997 C 650.3989999999999 226.16299999999998 648.3159999999998 221.53999999999996 647.0719999999999 216.16499999999996 C 646.4549999999999 223.16699999999997 650.7189999999999 231.97599999999997 649.1069999999999 239.90899999999996 C 644.055 230.717 639.042 221.484 634.861 211.417 z" stroke-linecap="round" />
</g>
<g transform="matrix(1 0 0 1 274.09 -34.69)" id="GYPLFc9vVL49Sr08niMpT"  >
<path style="stroke: none; stroke-width: 1; stroke-dasharray: none; stroke-linecap: butt; stroke-dashoffset: 0; stroke-linejoin: miter; stroke-miterlimit: 4; fill: transparent; fill-rule: evenodd; opacity: 1;" vector-effect="non-scaling-stroke"  transform=" translate(-724.09, -205.31)" d="M 714.911 224.984 C 716.829 224.297 717.8919999999999 220.461 719.659 217.86100000000002 C 716.954 219.67800000000003 715.139 222.383 713.215 224.984 C 712.7180000000001 222.467 711.9010000000001 219.489 712.537 217.52200000000002 C 713.259 215.305 715.768 214.09900000000002 717.2850000000001 212.09500000000003 C 719.6110000000001 209.02800000000002 720.4750000000001 205.366 723.0530000000001 203.27600000000004 C 723.1080000000001 200.00700000000003 725.2860000000001 197.55200000000005 726.4460000000001 194.45800000000003 C 728.4450000000002 189.11300000000003 727.5070000000002 182.70400000000004 731.1940000000002 179.53400000000002 C 732.0950000000001 180.32600000000002 732.3860000000002 181.73200000000003 733.5680000000002 182.247 C 738.1090000000003 195.33 736.7770000000002 211.537 731.5330000000002 222.61 C 726.4460000000003 225.43900000000002 723.1270000000003 230.031 716.2700000000002 231.089 C 722.8650000000002 224.999 727.3480000000002 217.302 730.5160000000002 209.381 C 724.0760000000001 216.398 720.7860000000002 226.561 711.8610000000002 231.089 C 711.882 228.283 715.073 226.846 714.911 224.984 z" stroke-linecap="round" />
</g>
<g transform="matrix(1 0 0 1 238.35 -11.29)" id="AeHh6fvpmJrRpUd5TMUdz"  >
<path style="stroke: none; stroke-width: 1; stroke-dasharray: none; stroke-linecap: butt; stroke-dashoffset: 0; stroke-linejoin: miter; stroke-miterlimit: 4; fill: transparent; fill-rule: evenodd; opacity: 1;" vector-effect="non-scaling-stroke"  transform=" translate(-688.35, -228.71)" d="M 700.663 209.042 C 703.365 207.618 703.509 202.342 705.077 199.206 C 708.408 201.759 709.316 208.974 710.163 213.79 C 710.749 217.11599999999999 711.816 225.361 709.825 228.375 C 710.572 237.625 700.394 243.639 696.9350000000001 246.013 C 697.104 245.895 697.1890000000001 245.549 697.273 245.335 C 696.195 245.86 697.347 246.71 695.577 246.013 C 696.556 247.56300000000002 693.862 246.27100000000002 693.542 248.048 C 693.048 247.898 693.575 247.75 693.542 247.37 C 690.645 249.104 685.75 250.797 682.688 252.119 C 679.843 253.347 673.6709999999999 255.987 665.729 258.224 C 673.042 252.804 682.456 248.45 687.774 242.95999999999998 C 683.479 244.99699999999999 677.414 248.19899999999998 672.511 250.76199999999997 C 677.134 246.33799999999997 682.327 242.48699999999997 686.7579999999999 237.87299999999996 C 685.352 236.69099999999997 683.7069999999999 239.07199999999997 682.6869999999999 239.90899999999996 C 678.6459999999998 243.21899999999997 673.4569999999999 246.65099999999995 669.1189999999999 249.74499999999998 C 671.141 244.29399999999998 676.67 237.11499999999998 682.0099999999999 232.78599999999997 C 675.1349999999999 236.31399999999996 670.4349999999998 242.01699999999997 667.0839999999998 249.06699999999998 C 666.1179999999998 248.92999999999998 667.9579999999999 247.07699999999997 666.7459999999999 246.69199999999998 C 669.2869999999999 243.63599999999997 669.2149999999999 240.00499999999997 671.1569999999998 237.19599999999997 C 673.5459999999998 233.73499999999996 677.8919999999998 231.73299999999998 680.6529999999998 228.37699999999998 C 684.7789999999998 227.277 689.1439999999998 224.45999999999998 691.8449999999998 220.915 C 696.1 218.497 699.136 213.054 700.663 209.042 z" stroke-linecap="round" />
</g>
<g transform="matrix(1 0 0 1 270.68 -6.86)" id="KTURC_h8r-kRbCgNoGopa"  >
<path style="stroke: none; stroke-width: 1; stroke-dasharray: none; stroke-linecap: butt; stroke-dashoffset: 0; stroke-linejoin: miter; stroke-miterlimit: 4; fill: transparent; fill-rule: evenodd; opacity: 1;" vector-effect="non-scaling-stroke"  transform=" translate(-720.68, -233.14)" d="M 731.87 250.084 C 731.936 249.809 732.213 249.746 732.2090000000001 249.406 C 727.09 252.901 722.6220000000001 252.76000000000002 717.624 254.833 C 717.708 254.464 718.301 254.603 718.3050000000001 254.155 C 713.0930000000001 255.9 705.45 259.114 698.628 258.903 C 696.21 261.36400000000003 690.859 260.983 686.759 260.93800000000005 C 684.7090000000001 262.55300000000005 674.823 261.028 671.835 260.26000000000005 C 680.885 258.30100000000004 692 258.1820000000001 700.664 254.83300000000006 C 705.81 252.84500000000006 710.4 250.48600000000005 715.251 248.38900000000007 C 705.976 250.30500000000006 695.53 253.99300000000008 685.063 255.85100000000006 C 690.992 251.94200000000006 702.41 250.58500000000006 708.468 245.67600000000004 C 709.447 246.65900000000005 709.5279999999999 245.01500000000004 710.842 245.33700000000005 C 713.156 243.30500000000004 717.124 242.06000000000006 718.645 240.24900000000005 C 712.02 241.76700000000005 704.7909999999999 245.61800000000005 698.2909999999999 248.39000000000004 C 701.64 245.40400000000005 707.5479999999999 242.04400000000004 709.4879999999999 236.51800000000003 C 718.4609999999999 233.77800000000002 725.5379999999999 231.25100000000003 731.534 226.34300000000002 C 741.986 217.78600000000003 750.992 206.29700000000003 769.523 204.63500000000002 C 761.006 215.82100000000003 757.234 231.03400000000002 747.134 238.55300000000003 C 745.765 239.574 745.2860000000001 241.19600000000003 744.422 241.94500000000002 C 744.341 242.01600000000002 740.8620000000001 243.84500000000003 741.7090000000001 243.64200000000002 C 741.2610000000001 243.74900000000002 741.0720000000001 243.77400000000003 740.6890000000001 243.98000000000002 C 739.8870000000001 244.413 740.0600000000001 245.45800000000003 739.335 246.01600000000002 C 739.0450000000001 246.23700000000002 738.294 245.82800000000003 737.9780000000001 246.01600000000002 C 737.5210000000001 246.287 735.7510000000001 247.96300000000002 734.2460000000001 248.729 C 735.437 248.12 731.988 249.491 731.87 250.084 z" stroke-linecap="round" />
</g>
<g transform="matrix(1 0 0 1 165.53 1.42)" id="1RAOr4zDUftsQWS2fF1Qy"  >
<path style="stroke: none; stroke-width: 1; stroke-dasharray: none; stroke-linecap: butt; stroke-dashoffset: 0; stroke-linejoin: miter; stroke-miterlimit: 4; fill: transparent; fill-rule: evenodd; opacity: 1;" vector-effect="non-scaling-stroke"  transform=" translate(-615.53, -241.42)" d="M 619.26 244.318 C 625.633 247.782 631.001 252.252 637.237 255.85000000000002 C 632.985 255.69100000000003 628.385 252.94400000000002 624.0079999999999 251.78000000000003 C 623.1099999999999 251.96900000000002 625.4209999999999 253.09200000000004 623.3309999999999 252.79800000000003 C 627.9719999999999 256.29600000000005 633.1059999999999 259.30300000000005 639.6109999999999 260.93800000000005 C 623.6909999999999 265.11400000000003 622.0349999999999 247.65300000000005 608.0679999999999 248.72800000000004 C 601.2659999999998 240.82900000000004 595.0279999999999 232.37000000000003 591.4469999999999 221.25300000000004 C 597.2029999999999 221.04700000000005 601.8679999999999 228.22400000000005 607.0489999999999 231.09000000000003 C 610.2029999999999 232.83500000000004 618.8819999999998 235.00100000000003 622.3129999999999 233.80300000000003 C 624.8029999999999 237.41700000000003 627.6879999999999 240.63900000000004 629.7749999999999 244.65700000000004 C 628.8399999999999 244.23600000000005 628.1809999999998 243.53700000000003 627.0629999999999 243.30000000000004 C 629.8529999999998 247.86000000000004 635.4999999999999 249.56000000000003 638.2549999999999 254.15400000000005 C 632.441 250.357 627.066 246.123 619.26 244.318 z" stroke-linecap="round" />
</g>
<g transform="matrix(1 0 0 1 163.87 18.11)" id="n_rYbCiLGJcSINrOZPXKu"  >
<path style="stroke: none; stroke-width: 1; stroke-dasharray: none; stroke-linecap: butt; stroke-dashoffset: 0; stroke-linejoin: miter; stroke-miterlimit: 4; fill: transparent; fill-rule: evenodd; opacity: 1;" vector-effect="non-scaling-stroke"  transform=" translate(-613.87, -258.11)" d="M 644.699 265.348 C 638.0269999999999 272.867 624.991 275.673 611.1189999999999 276.541 C 625.6659999999999 278.889 636.8679999999999 274.432 645.7169999999999 268.4 C 642.4729999999998 272.053 638.2329999999998 274.71 634.1849999999998 277.55899999999997 C 639.7349999999998 276.777 644.3809999999999 272.15299999999996 648.0929999999998 268.4 C 648.0229999999998 267.27 648.7809999999998 266.042 650.8049999999998 265.00899999999996 C 647.8569999999999 270.53999999999996 644.3509999999999 275.51399999999995 637.9159999999998 277.55899999999997 C 628.2359999999999 284.643 613.8789999999998 285.553 601.2829999999998 282.308 C 596.8319999999998 281.161 591.6459999999997 278.328 588.7329999999998 275.524 C 588.2679999999998 275.076 588.1649999999998 273.967 587.7149999999998 273.489 C 587.3049999999998 273.051 587.2509999999997 273.88899999999995 586.6989999999998 273.489 C 585.1019999999999 272.335 581.3749999999999 266.02299999999997 580.9319999999998 263.31399999999996 C 580.4829999999998 260.57399999999996 581.5119999999998 257.68499999999995 581.2699999999998 254.83399999999997 C 580.6999999999997 248.06799999999998 573.2649999999998 240.55599999999998 579.2349999999998 232.10799999999998 C 583.5059999999997 234.28099999999998 585.3959999999997 238.837 588.3939999999998 242.283 C 589.5509999999998 243.387 590.7529999999998 244.44699999999997 591.4469999999998 246.01399999999998 C 597.2179999999997 250.34599999999998 604.1299999999998 250.20499999999998 611.1189999999998 251.44099999999997 C 619.8029999999998 252.97699999999998 623.6139999999998 261.714 631.1309999999999 263.991 C 636.4089999999999 264.435 641.9089999999999 263.00399999999996 646.3959999999998 261.61699999999996 C 639.2449999999999 267.01699999999994 627.5999999999998 267.92199999999997 616.2079999999999 269.07899999999995 C 625.634 270.512 635.387 269.693 644.699 265.348 z" stroke-linecap="round" />
</g>
<g transform="matrix(1 0 0 1 270.51 23.59)" id="6pKzzX34ww0Pnd-D_0vrY"  >
<path style="stroke: none; stroke-width: 1; stroke-dasharray: none; stroke-linecap: butt; stroke-dashoffset: 0; stroke-linejoin: miter; stroke-miterlimit: 4; fill: transparent; fill-rule: evenodd; opacity: 1;" vector-effect="non-scaling-stroke"  transform=" translate(-720.51, -263.59)" d="M 761.38 248.389 C 757.9399999999999 263.93 747.638 278.829 729.835 278.915 C 723.7520000000001 275.77200000000005 724.2330000000001 268.00100000000003 718.644 264.66900000000004 C 712.692 265.95400000000006 713.8 273.97200000000004 710.841 278.915 C 705.037 279.101 701.183 277.007 696.597 275.184 C 696.884 274.189 697.447 275.625 698.29 275.184 C 697.5939999999999 272.83000000000004 694.915 272.45300000000003 692.865 271.45300000000003 C 697.981 270.85900000000004 703.436 272.867 708.468 273.48800000000006 C 707.361 272.41300000000007 706.727 272.56200000000007 706.433 271.11400000000003 C 698.468 269.374 687.172 268.035 679.639 265.68600000000004 C 686.955 265.648 693.9010000000001 267.33000000000004 701.684 267.38200000000006 C 697.6469999999999 265.0520000000001 691.534 264.28100000000006 686.4209999999999 263.99000000000007 C 692.8359999999999 262.6190000000001 697.459 263.80800000000005 703.0429999999999 265.3470000000001 C 703.4469999999999 263.3510000000001 698.8829999999999 263.4030000000001 697.9519999999999 261.6160000000001 C 700.8929999999999 261.7280000000001 702.5609999999999 260.5710000000001 705.7549999999999 260.9370000000001 C 704.6509999999998 259.8080000000001 708.0369999999999 260.66000000000014 709.1449999999999 259.91900000000015 C 710.6909999999999 261.6200000000002 713.2599999999999 260.96400000000017 714.9129999999999 262.97200000000015 C 716.6129999999999 262.7090000000002 717.9679999999998 262.82800000000015 719.3219999999999 263.6510000000001 C 736.1119999999999 264.7650000000001 746.8329999999999 257.86400000000015 755.2759999999998 251.4400000000001 C 756.935 250.178 758.186 247.615 761.38 248.389 z" stroke-linecap="round" />
</g>
<g transform="matrix(1 0 0 1 247.72 45.36)" id="ee4HXbgoI7JJr5TYn781c"  >
<path style="stroke: none; stroke-width: 1; stroke-dasharray: none; stroke-linecap: butt; stroke-dashoffset: 0; stroke-linejoin: miter; stroke-miterlimit: 4; fill: transparent; fill-rule: evenodd; opacity: 1;" vector-effect="non-scaling-stroke"  transform=" translate(-697.72, -285.36)" d="M 688.456 280.95 C 679.888 275.611 670.712 270.878 664.711 262.973 C 669.812 266.777 676.49 269.728 683.365 272.471 C 689.92 275.084 696.195 279.171 702.699 280.95 C 704.4029999999999 281.416 706.692 281.554 709.1429999999999 281.628 C 705.7049999999999 288.073 697.3059999999999 293.51599999999996 688.4549999999999 290.447 C 686.8129999999999 288.468 685.161 286.504 682.6869999999999 285.359 C 683.6069999999999 293.217 695.3699999999999 297.019 703.3799999999999 293.161 C 707.0489999999999 287.099 713.5559999999999 284.718 715.2489999999999 277.897 C 716.103 274.46999999999997 714.4419999999999 270.084 717.9649999999999 267.722 C 719.8129999999999 267.794 719.4999999999999 270.03 719.9999999999999 271.453 C 721.3479999999998 273.49499999999995 722.3369999999999 275.899 723.7289999999999 277.897 C 727.847 280.71299999999997 739.1059999999999 286.935 731.8699999999999 293.161 C 730.1959999999999 294.603 727.8439999999999 295.096 726.1029999999998 296.553 C 721.4249999999998 300.468 715.9629999999999 307.737 708.4659999999999 307.746 C 702.6769999999999 307.753 696.7869999999999 303.08799999999997 692.5249999999999 300.62199999999996 C 684.7119999999999 296.10599999999994 675.8529999999998 289.68399999999997 673.5299999999999 281.289 C 672.2899999999998 281.169 672.0579999999999 280.046 671.1559999999998 279.59299999999996 C 670.9249999999998 278.133 670.1109999999999 278.26599999999996 670.1359999999999 277.21799999999996 C 667.2729999999998 274.655 665.0149999999999 271.48599999999993 663.0139999999999 268.05999999999995 C 662.4379999999999 266.93799999999993 660.7249999999999 266.9549999999999 661.3179999999999 264.667 C 665.4179999999999 272.277 671.4059999999998 275.907 677.2579999999999 281.626 C 674.4309999999999 276.768 670.703 272.806 666.7449999999999 269.077 C 672.986 272.675 679.034 279.403 688.456 280.95 z" stroke-linecap="round" />
</g>
<g transform="matrix(1 0 0 1 179.12 49.27)" id="v6VL-vfaMjc6JENctarEL"  >
<path style="stroke: none; stroke-width: 1; stroke-dasharray: none; stroke-linecap: butt; stroke-dashoffset: 0; stroke-linejoin: miter; stroke-miterlimit: 4; fill: transparent; fill-rule: evenodd; opacity: 1;" vector-effect="non-scaling-stroke"  transform=" translate(-629.12, -289.27)" d="M 656.572 269.757 C 656.368 268.081 657.566 270.11 656.572 270.096 C 656.2 274.991 656.07 278.61 655.891 282.645 C 655.563 290.14 654.7719999999999 297.70799999999997 647.752 304.35299999999995 C 642.5509999999999 309.27599999999995 631.317 310.34999999999997 622.651 308.763 C 617.6579999999999 307.849 614.3979999999999 303.988 609.083 303.335 C 608.1759999999999 301.98199999999997 606.606 301.291 606.0319999999999 299.604 C 605.6379999999999 299.889 605.1229999999999 300.05199999999996 604.3359999999999 299.943 C 603.0949999999999 297.99199999999996 601.079 296.66999999999996 601.2829999999999 294.17699999999996 C 602.0869999999999 293.17199999999997 603.43 292.70699999999994 604.675 292.14199999999994 C 606.486 293.2049999999999 610.891 293.32399999999996 610.781 295.19499999999994 C 616.266 297.88499999999993 623.4889999999999 299.28399999999993 631.132 298.5879999999999 C 633.846 298.3399999999999 638.3549999999999 299.4489999999999 639.952 297.56999999999994 C 632.039 296.6599999999999 622.65 297.7269999999999 615.529 294.17699999999996 C 620.593 291.82199999999995 625.632 290.33 629.437 288.07199999999995 C 634.0120000000001 285.35699999999997 638.005 282.1689999999999 643.003 278.91299999999995 C 645.1320000000001 276.46599999999995 649.0740000000001 273.03799999999995 651.1450000000001 269.41499999999996 C 649.7570000000001 276.95899999999995 642.5350000000001 281.60799999999995 638.2560000000001 287.39199999999994 C 642.3560000000001 284.36799999999994 648.3480000000001 280.29999999999995 651.484 275.18199999999996 C 651.539 277.96899999999994 648.9680000000001 282.70099999999996 646.736 286.03599999999994 C 651.528 282.126 654.459 276.352 656.572 269.757 z" stroke-linecap="round" />
</g>
<g transform="matrix(1 0 0 1 206.77 70.24)" id="xja-j8aoVV4FZppojicap"  >
<path style="stroke: none; stroke-width: 1; stroke-dasharray: none; stroke-linecap: butt; stroke-dashoffset: 0; stroke-linejoin: miter; stroke-miterlimit: 4; fill: transparent; fill-rule: evenodd; opacity: 1;" vector-effect="non-scaling-stroke"  transform=" translate(-656.77, -310.24)" d="M 661.997 282.308 C 664.8929999999999 288.521 665.703 300.212 667.0849999999999 306.729 C 667.5869999999999 299.837 667.2689999999999 295.03499999999997 666.747 290.108 C 666.487 287.666 664.9309999999999 284.7 665.7289999999999 282.646 C 665.4989999999999 281.858 664.862 281.478 664.371 280.95 C 664.268 280.168 665.352 280.574 665.391 279.932 C 665.043 279.035 663.4219999999999 279.413 664.033 277.558 C 664.868 277.031 665.03 278.71 664.371 278.57599999999996 C 669.459 283.88599999999997 673.631 288.26599999999996 675.225 296.21299999999997 C 677.205 306.078 675.104 318.29799999999994 669.8000000000001 325.383 C 665.2400000000001 331.474 658.884 337.78999999999996 651.4830000000001 340.647 C 648.6460000000001 341.74399999999997 640.5930000000001 344.98 637.5780000000001 341.325 C 638.0310000000001 328.777 648.527 324.46299999999997 651.1440000000001 315.20799999999997 C 651.3920000000002 314.604 651.7620000000002 315.159 652.1620000000001 315.20799999999997 C 658.1310000000002 305.525 659.7250000000001 292.38899999999995 658.6060000000001 280.95 C 659.6600000000001 281.493 659.6710000000002 283.217 659.9620000000001 284.681 C 661.8960000000001 294.383 663.8830000000002 309.604 659.6240000000001 320.296 C 665.913 309.01 664.049 296.512 661.997 282.308 z" stroke-linecap="round" />
</g>
<g transform="matrix(1 0 0 1 179.78 79.26)" id="0TpzSOzdFm8XIo7vLhji_"  >
<path style="stroke: none; stroke-width: 1; stroke-dasharray: none; stroke-linecap: butt; stroke-dashoffset: 0; stroke-linejoin: miter; stroke-miterlimit: 4; fill: transparent; fill-rule: evenodd; opacity: 1;" vector-effect="non-scaling-stroke"  transform=" translate(-629.78, -319.26)" d="M 610.441 331.829 C 614.239 324.806 619.443 321.007 622.312 312.834 C 632.577 315.837 643.515 312.069 649.107 306.389 C 649.262 307.564 645.531 313.308 643.68 315.548 C 640.0379999999999 319.952 634.8929999999999 322.797 629.097 326.062 C 624.017 328.924 617.857 333.341 610.441 331.829 z" stroke-linecap="round" />
</g>
</svg>